<svg id="Группа_1" data-name="Группа 1" xmlns="http://www.w3.org/2000/svg" width="42" height="42" viewBox="0 0 42 42">
  <defs>
    <style>
      .cls-1 {
        fill: #4680c2;
      }

      .cls-1, .cls-2 {
        fill-rule: evenodd;
      }

      .cls-2 {
        fill: #fff;
      }
    </style>
  </defs>
  <path id="icon" class="cls-1" d="M922.565,724h12.878C947.2,724,950,726.8,950,738.56v12.88c0,11.76-2.8,14.56-14.557,14.56H922.565c-11.759,0-14.558-2.8-14.558-14.56V738.56c0-11.76,2.8-14.56,14.558-14.56M942.4,738.469c0.2-.648,0-1.125-0.925-1.125h-3.063a1.323,1.323,0,0,0-1.332.866,25.619,25.619,0,0,1-3.763,6.262,2.226,2.226,0,0,1-1.427.941c-0.2,0-.476-0.227-0.476-0.876v-6.068c0-.778-0.226-1.125-0.875-1.125h-4.812a0.738,0.738,0,0,0-.779.7c0,0.738,1.1.908,1.217,2.985v4.509c0,0.989-.179,1.169-0.568,1.169-1.038,0-3.564-3.813-5.061-8.177a1.318,1.318,0,0,0-1.37-1.19H916.1c-0.875,0-1.05.412-1.05,0.866,0,0.811,1.038,4.834,4.833,10.155,2.53,3.634,6.1,5.6,9.339,5.6,1.947,0,2.188-.438,2.188-1.191v-2.746c0-.876.184-1.05,0.8-1.05,0.454,0,1.233.227,3.05,1.979,2.076,2.076,2.418,3.008,3.586,3.008h3.062a0.928,0.928,0,0,0,1.06-1.3,13.185,13.185,0,0,0-2.583-3.589c-0.714-.843-1.784-1.752-2.109-2.206a0.941,0.941,0,0,1,0-1.363s3.731-5.256,4.12-7.041" transform="translate(-908 -724)"/>
  <path id="vk" class="cls-2" d="M942.465,738.461c0.195-.648,0-1.125-0.93-1.125h-3.074a1.328,1.328,0,0,0-1.337.866,25.578,25.578,0,0,1-3.777,6.257,2.24,2.24,0,0,1-1.433.94c-0.195,0-.478-0.227-0.478-0.875v-6.063c0-.778-0.227-1.125-0.879-1.125h-4.83a0.74,0.74,0,0,0-.782.7c0,0.737,1.107.908,1.222,2.983v4.506c0,0.988-.18,1.167-0.571,1.167-1.041,0-3.576-3.81-5.08-8.17a1.322,1.322,0,0,0-1.375-1.19h-3.074c-0.878,0-1.054.412-1.054,0.866,0,0.81,1.042,4.83,4.852,10.147,2.54,3.631,6.119,5.6,9.375,5.6,1.954,0,2.2-.438,2.2-1.191v-2.744c0-.874.185-1.049,0.8-1.049,0.455,0,1.237.227,3.061,1.978,2.084,2.075,2.427,3.006,3.6,3.006h3.074a0.928,0.928,0,0,0,1.063-1.3,13.121,13.121,0,0,0-2.592-3.586c-0.717-.843-1.792-1.751-2.117-2.205a0.937,0.937,0,0,1,0-1.362s3.745-5.252,4.136-7.035" transform="translate(-908 -724)"/>
</svg>
