<svg 
 xmlns="http://www.w3.org/2000/svg"
 xmlns:xlink="http://www.w3.org/1999/xlink"
 width="32px" height="32px">
<path fill-rule="evenodd"  fill="rgb(255, 255, 255)"
 d="M17.978,14.032 L17.978,2.125 C17.978,1.029 17.090,0.141 15.993,0.141 C14.896,0.141 14.009,1.029 14.009,2.125 L14.009,14.032 L2.102,14.031 C1.005,14.032 0.118,14.920 0.118,16.016 C0.118,17.112 1.005,18.000 2.102,18.000 L14.009,18.000 L14.009,29.907 C14.009,31.003 14.896,31.891 15.993,31.891 C17.090,31.891 17.978,31.003 17.978,29.907 L17.978,18.000 L29.884,18.000 C30.981,18.000 31.868,17.112 31.869,16.016 C31.869,14.920 30.981,14.032 29.884,14.031 L17.978,14.032 Z"/>
</svg>