<svg 
 xmlns="http://www.w3.org/2000/svg"
 xmlns:xlink="http://www.w3.org/1999/xlink"
 width="20px" height="20px">
<path fill-rule="evenodd"  fill="rgb(0, 0, 0)"
 d="M12.767,10.095 L19.228,3.572 C19.995,2.798 19.995,1.545 19.228,0.771 C18.462,-0.003 17.220,-0.003 16.454,0.771 L9.992,7.294 L3.530,0.771 C2.764,-0.003 1.522,-0.003 0.755,0.771 C-0.011,1.545 -0.011,2.798 0.755,3.572 L7.217,10.095 L0.755,16.619 C-0.011,17.392 -0.011,18.646 0.755,19.420 C1.139,19.806 1.641,20.000 2.143,20.000 C2.645,20.000 3.147,19.806 3.530,19.420 L9.992,12.896 L16.454,19.420 C16.837,19.806 17.339,20.000 17.841,20.000 C18.343,20.000 18.845,19.806 19.228,19.420 C19.995,18.646 19.995,17.392 19.228,16.619 L12.767,10.095 Z"/>
</svg>