<svg 
 xmlns="http://www.w3.org/2000/svg"
 xmlns:xlink="http://www.w3.org/1999/xlink"
 width="20px" height="20px">
<path fill-rule="evenodd"  opacity="0.4" fill="rgb(0, 0, 0)"
 d="M11.766,4.000 L15.691,8.000 L7.842,16.000 L3.917,16.000 L3.917,12.000 L11.766,4.000 M11.766,-0.000 C10.762,-0.000 9.758,0.391 8.991,1.172 L1.142,9.172 C0.406,9.922 -0.007,10.939 -0.007,12.000 L-0.007,16.000 C-0.007,18.209 1.750,20.000 3.917,20.000 L7.842,20.000 C8.882,20.000 9.881,19.579 10.617,18.828 L18.466,10.828 C19.998,9.266 19.998,6.734 18.466,5.172 L14.541,1.172 C13.775,0.391 12.771,-0.000 11.766,-0.000 L11.766,-0.000 Z"/>
</svg>