<svg xmlns="http://www.w3.org/2000/svg"
 xmlns:xlink="http://www.w3.org/1999/xlink"
 width="19px" height="35px"  viewBox="0 0 19 35">
<path fill-rule="evenodd"  fill="#ffffff"
 d="M17.13446,24.256653 C16.370728,23.482666 15.133484,23.482666 14.369812,24.256653 C14.369812,24.256653 11.841675,26.818176 11.841675,26.818176 C11.841675,26.818176 11.841675,3.8652344 11.841675,3.8652344 C11.841675,2.7756348 10.961792,1.8842163 9.886475,1.8842163 C8.811096,1.8842163 7.9311523,2.7756348 7.9311523,3.8652344 C7.9311523,3.8652344 7.9311523,26.818176 7.9311523,26.818176 C7.9311523,26.818176 5.4032593,24.256653 5.4032593,24.256653 C5.0214844,23.869751 4.520996,23.67633 4.020813,23.67633 C3.5205688,23.67633 3.0202637,23.869751 2.6384888,24.256653 C1.8748169,25.030518 1.8748169,26.284119 2.6384888,27.057922 C2.6384888,27.057922 8.50415,33.00122 8.50415,33.00122 C9.267822,33.775208 10.505005,33.775208 11.268799,33.00122 C11.268799,33.00122 17.13446,27.057922 17.13446,27.057922 C17.898376,26.284119 17.898376,25.030518 17.13446,24.256653 Z"/>
</svg>