<svg xmlns="http://www.w3.org/2000/svg" width="19.625" height="19.781" viewBox="0 0 19.625 19.781">
  <defs>
    <style>
      .cls-1 {
        fill: #0055f9;
        fill-rule: evenodd;
      }
    </style>
  </defs>
  <path id="Фигура_26" data-name="Фигура 26" class="cls-1" d="M902.766,958.1l6.462-6.523a1.994,1.994,0,0,0,0-2.8,1.948,1.948,0,0,0-2.775,0l-6.461,6.523-6.462-6.523a1.948,1.948,0,0,0-2.775,0,1.994,1.994,0,0,0,0,2.8l6.462,6.523-6.462,6.524a1.994,1.994,0,0,0,0,2.8,1.95,1.95,0,0,0,2.775,0l6.462-6.524,6.461,6.524a1.95,1.95,0,0,0,2.775,0,1.994,1.994,0,0,0,0-2.8Z" transform="translate(-890.188 -948.219)"/>
</svg>
