<svg xmlns="http://www.w3.org/2000/svg" width="19.625" height="20" viewBox="0 0 19.625 20">
  <defs>
    <style>
      .cls-1 {
        fill: #0055f9;
        fill-rule: evenodd;
      }
    </style>
  </defs>
  <path id="Фигура_25" data-name="Фигура 25" class="cls-1" d="M821.76,952l3.924,4-7.849,8h-3.924v-4l7.849-8m0-4a3.87,3.87,0,0,0-2.775,1.172l-7.849,8a4.038,4.038,0,0,0-1.15,2.828v4a3.963,3.963,0,0,0,3.925,4h3.924a3.884,3.884,0,0,0,2.775-1.172l7.849-8a4.053,4.053,0,0,0,0-5.656l-3.924-4A3.873,3.873,0,0,0,821.76,948h0Z" transform="translate(-810 -948)"/>
</svg>
