<svg xmlns="http://www.w3.org/2000/svg"
 xmlns:xlink="http://www.w3.org/1999/xlink"
 width="23px" height="36px"  viewBox="0 0 23 36">
<path fill-rule="evenodd"  fill="#0055f9"
 d="M12.000122,2.0 C6.486328,2.0 1.999939,6.486328 1.999939,11.999878 C1.999939,11.999878 1.999939,32.0 1.999939,32.0 C1.999939,33.105164 2.8955078,34.0 3.999878,34.0 C5.1046143,34.0 6.0,33.105164 6.0,32.0 C6.0,32.0 6.0,11.999878 6.0,11.999878 C6.0,8.691284 8.691406,6.000122 12.000122,6.000122 C15.308472,6.000122 17.999878,8.691284 17.999878,11.999878 C17.999878,11.999878 17.999878,27.999817 17.999878,27.999817 C17.999878,29.103394 17.103516,29.999817 16.000183,29.999817 C14.896484,29.999817 14.0,29.103394 14.0,27.999817 C14.0,27.999817 14.0,11.999878 14.0,11.999878 C14.0,10.895325 13.104614,9.999939 12.000122,9.999939 C10.895508,9.999939 9.999939,10.895325 9.999939,11.999878 C9.999939,11.999878 9.999939,27.999817 9.999939,27.999817 C9.999939,31.30835 12.691345,34.0 16.000183,34.0 C19.308533,34.0 21.999939,31.30835 21.999939,27.999817 C21.999939,27.999817 21.999939,11.999878 21.999939,11.999878 C21.999939,6.486328 17.51355,2.0 12.000122,2.0 Z"/>
</svg>